# File created by Blade
# Date/Time:  Thu Jan 22 16:00:44 2015
# Frame Rate: 120.000 fps
#------------------------------------------------------
:FULLY-SPECIFIED
:DEGREES
1126
root 2.748672 37.198186 5.598730 -5.736467 -8.585402 1.625747
RightUpLeg 10.774037 3.870006 -4.231035
RightLeg -3.321219 -0.000000 0.000000
RightFoot -9.199120 -7.423138 16.652680
RightToeBase 12.661938 -0.000000 -0.000000
LeftUpLeg 10.886928 7.565130 3.922141
LeftLeg -1.197179 -0.000000 0.000000
LeftFoot -7.191641 9.185736 -18.641274
LeftToeBase 8.409301 -0.000000 -0.000000
Spine 9.506524 -11.171891 -5.840633
RightShoulder -3.645423 -13.463894 -15.290564
RightArm 31.977732 32.967414 55.407795
RightForeArm 24.538992 -0.000000 100.936805
RightHand 16.392254 -0.000000 -19.551862
RightHandThumb1 -24.326973 -0.000000 -32.862282
LeftShoulder -20.328667 54.548083 -2.448407
LeftArm 70.107220 56.750695 -10.643659
LeftForeArm 57.083104 -0.000000 67.786276
LeftHand -12.285313 -0.000000 -6.524198
LeftHandThumb1 -26.253704 0.000000 33.147579
Head 19.243081 31.952680 8.634373
1127
root 2.748523 37.199466 5.619491 -5.847042 -8.733444 1.598737
RightUpLeg 10.826522 3.961080 -4.196844
RightLeg -3.184467 -0.000000 0.000000
RightFoot -9.227202 -7.326518 16.642176
RightToeBase 12.600324 -0.000000 -0.000000
LeftUpLeg 11.045660 7.704985 3.976671
LeftLeg -1.168953 -0.000000 0.000000
LeftFoot -7.221528 9.183596 -18.687270
LeftToeBase 8.273310 -0.000000 -0.000000
Spine 9.516326 -11.300511 -5.886628
RightShoulder -3.624441 -13.096024 -16.083225
RightArm 33.624707 34.838250 55.959947
RightForeArm 24.996341 0.000000 102.127485
RightHand 17.027457 -0.000000 -20.147359
RightHandThumb1 -24.326973 -0.000000 -32.862282
LeftShoulder -20.435154 55.042914 -2.848029
LeftArm 72.821117 57.132641 -8.161123
LeftForeArm 57.522685 0.000000 69.639893
LeftHand -12.469495 -0.000000 -6.245839
LeftHandThumb1 -26.253704 0.000000 33.147579
Head 20.892356 31.901533 9.100434
1128
root 2.747062 37.200152 5.648163 -6.022476 -8.876511 1.583470
RightUpLeg 10.971353 4.044764 -4.169037
RightLeg -3.080182 -0.000000 0.000000
RightFoot -9.267754 -7.230552 16.650942
RightToeBase 12.639915 -0.000000 -0.000000
LeftUpLeg 11.296748 7.866020 4.034039
LeftLeg -1.169538 -0.000000 0.000000
LeftFoot -7.267469 9.200198 -18.583161
LeftToeBase 8.342562 -0.000000 -0.000000
Spine 9.581058 -11.474477 -5.959502
RightShoulder -3.575255 -12.795647 -16.903988
RightArm 35.524470 36.644240 56.687570
RightForeArm 25.344609 -0.000000 103.225425
RightHand 17.398062 -0.000000 -20.230853
RightHandThumb1 -24.326973 -0.000000 -32.862282
LeftShoulder -20.606925 55.485713 -3.287902
LeftArm 75.640674 57.450198 -5.635414
LeftForeArm 57.867275 0.000000 71.481440
LeftHand -12.257050 0.000000 -6.069100
LeftHandThumb1 -26.253704 0.000000 33.147579
Head 22.575108 31.869640 9.560411
1129
root 2.740597 37.203440 5.656791 -6.062193 -8.963438 1.552494
RightUpLeg 10.933410 4.122237 -4.115193
RightLeg -2.913615 -0.000000 0.000000
RightFoot -9.319176 -7.205497 16.658500
RightToeBase 12.690246 -0.000000 -0.000000
LeftUpLeg 11.340536 8.009147 4.095136
LeftLeg -1.108326 -0.000000 0.000000
LeftFoot -7.290743 9.179294 -18.553316
LeftToeBase 8.338026 -0.000000 -0.000000
Spine 9.526603 -11.662184 -6.012517
RightShoulder -3.542095 -12.587623 -17.708104
RightArm 37.619283 38.466974 57.630742
RightForeArm 25.582811 0.000000 104.267166
RightHand 17.788496 -0.000000 -20.488637
RightHandThumb1 -24.326973 -0.000000 -32.862282
LeftShoulder -20.731170 55.960980 -3.707760
LeftArm 78.278712 57.616848 -3.318141
LeftForeArm 58.369311 -0.000000 73.336462
LeftHand -11.349233 -0.000000 -5.987784
LeftHandThumb1 -26.253704 0.000000 33.147579
Head 24.294279 31.822109 10.080435
